<svg width="178" height="132" viewBox="0 0 178 132" fill="none" xmlns="http://www.w3.org/2000/svg">
<g clip-path="url(#clip0_71_1236)">
<g clip-path="url(#clip1_71_1236)" filter="url(#filter0_bii_71_1236)">
<g filter="url(#filter1_bii_71_1236)">
<path d="M102.373 95.9659L102.851 100.084L125.447 97.4527L125.806 100.539L103.331 104.203L103.811 108.318L126.524 106.715L126.884 109.801L104.293 112.436L104.789 116.71C104.789 116.71 118.737 117.01 137.896 114.779C137.896 114.779 140.054 111.132 140.575 106.18L149.971 105.434L152.812 141.249C152.812 141.249 155.076 142.75 159.192 142.27C163.308 141.789 165.162 139.81 165.162 139.81L156.927 86.3366C163.3 83.8032 167.429 77.2479 166.314 67.6881C164.972 56.1688 156.534 44.6648 147.894 45.6706C139.255 46.6773 133.687 59.8143 135.03 71.3336C136.148 80.9314 141.713 86.3641 148.536 87.3332L149.252 96.343L139.604 97.8281C137.957 93.1282 135.019 90.0762 135.019 90.0762C115.862 92.3085 102.373 95.9659 102.373 95.9659ZM162.639 94.2825L165.414 104.208L195.127 101.851C195.127 101.851 196.627 99.5882 196.148 95.471C195.669 91.3547 193.688 89.5008 193.688 89.5008L162.639 94.2825Z" fill="#DDFFCD"/>
</g>
</g>
<path fill-rule="evenodd" clip-rule="evenodd" d="M73.3887 7.32891C70.6895 7.8154 68.5617 9.67178 68.0084 12.0229C67.8061 12.8828 67.8715 13.8218 68.1797 14.4819C68.7387 15.679 69.7047 16.216 72.5693 16.9222C74.1745 17.3179 74.7563 17.5415 74.8562 17.8011C74.8883 17.8847 74.9147 18.1001 74.9147 18.28C74.9147 18.6904 74.5361 19.094 74.016 19.2379C73.5333 19.3716 72.3887 19.3689 71.8468 19.2328C71.2749 19.0892 70.6553 18.4994 70.5109 17.9611C70.4371 17.6857 70.355 17.5651 70.2437 17.5684C70.1555 17.5711 69.1756 17.7309 68.0662 17.9236L66.0492 18.274L66.0197 18.5755C65.945 19.3373 66.6054 20.7699 67.3587 21.4802C67.9417 22.0301 68.5488 22.3517 69.5383 22.6348C70.1734 22.8165 70.4893 22.8442 71.9126 22.8429C73.2924 22.8416 73.6869 22.8083 74.3852 22.6339C75.4713 22.3626 76.3413 21.9922 77.1478 21.4576C79.8442 19.6704 80.7245 16.2189 78.949 14.3949C78.3206 13.7492 77.487 13.4151 75.0554 12.8346C72.8398 12.3057 72.5271 12.0975 72.7827 11.3227C72.9931 10.6855 73.9308 10.3638 75.047 10.5462C75.9019 10.6858 76.409 11.1081 76.637 11.8699C76.6766 12.0023 76.9478 11.9472 78.7085 11.4489L80.7344 10.8755L80.6788 10.5949C80.5625 10.0088 80.0064 9.00008 79.5502 8.54772C78.9764 7.97872 78.0077 7.50551 77.038 7.32049C76.1339 7.148 74.3694 7.15203 73.3887 7.32891ZM126.841 7.24014C126.738 7.2609 126.4 7.32554 126.09 7.38382C122.134 8.12839 118.976 12.5388 118.97 17.3297C118.968 19.0937 119.261 20.0257 120.168 21.1349C120.689 21.7734 121.447 22.2864 122.327 22.5967C122.912 22.8026 123.157 22.8328 124.308 22.8402C125.434 22.8473 125.721 22.8175 126.325 22.6308C127.157 22.3732 127.894 21.9838 128.499 21.4821C128.741 21.2819 128.958 21.1181 128.983 21.1181C129.029 21.1181 129.181 21.7568 129.279 22.3575L129.335 22.7082H131.544L132.406 18.4752C132.879 16.147 133.267 14.2108 133.267 14.1724C133.267 14.1341 131.729 14.1026 129.849 14.1026H126.432L126.332 14.5937C126.276 14.8639 126.131 15.5793 126.009 16.1839L125.787 17.283H127.041C128.486 17.283 128.483 17.2806 128.022 18.0825C127.124 19.642 124.74 19.7586 124.065 18.276C123.591 17.2356 124.092 14.0108 124.997 12.2786C125.615 11.0933 126.362 10.5394 127.358 10.5255C128.432 10.5107 129.045 11.2248 129.045 12.4884V12.8981L129.444 12.8464C129.663 12.818 130.56 12.7296 131.438 12.6501C132.315 12.5706 133.174 12.4834 133.346 12.4563L133.66 12.4071L133.593 11.7349C133.285 8.66231 131.438 7.15464 128.029 7.19159C127.479 7.19758 126.944 7.21947 126.841 7.24014ZM86.7727 8.04598C86.5856 8.41892 84.8566 11.7969 82.9306 15.5525C81.0045 19.3081 79.4006 22.4545 79.3662 22.5445C79.3082 22.697 79.4314 22.7082 81.168 22.7082H83.0322L84.5785 19.6179L88.7522 19.6682L88.8625 20.8842C88.9232 21.553 88.9759 22.2371 88.9797 22.4042L88.9868 22.7082H93.7595L93.7158 22.4042C93.6488 21.9379 92.0826 7.64114 92.0826 7.49569C92.0826 7.39074 91.6363 7.36782 89.5978 7.36782H87.1128L86.7727 8.04598ZM98.3246 7.56855C98.2339 7.95197 95.2723 22.5825 95.2723 22.6468C95.2723 22.7428 101.214 22.714 102.256 22.613C103.444 22.4979 104.411 22.2327 105.348 21.7651C108.547 20.169 110.603 16.787 110.574 13.1672C110.556 10.8878 109.499 8.93946 107.843 8.13353C106.515 7.4868 106.137 7.43835 102.055 7.39102L98.3766 7.34846L98.3246 7.56855ZM113.989 7.57828C113.898 7.96656 110.939 22.5846 110.939 22.6485C110.939 22.6832 111.981 22.7003 113.254 22.6864L115.569 22.6615L117.1 15.1316C117.941 10.9901 118.631 7.5491 118.631 7.48474C118.632 7.39438 118.111 7.36782 116.335 7.36782H114.039L113.989 7.57828ZM137.161 7.57828C137.067 7.97451 134.113 22.5678 134.112 22.6397C134.112 22.6792 135.153 22.7003 136.427 22.6864L138.743 22.6615L140.272 15.1316C141.114 10.9901 141.803 7.5491 141.803 7.48474C141.804 7.39438 141.283 7.36782 139.507 7.36782H137.211L137.161 7.57828ZM143.26 7.48474C143.203 7.65424 142.555 10.8161 142.555 10.9245C142.555 10.9803 143.17 11.0158 144.138 11.0158H145.722L144.561 16.7348C143.922 19.8803 143.399 22.5118 143.399 22.5827C143.399 22.6893 143.777 22.7073 145.577 22.6865L147.755 22.6615L150.111 11.0626L153.317 11.0115L153.659 9.3066C153.846 8.36888 154 7.5491 154 7.48474C154 7.31347 143.318 7.31347 143.26 7.48474ZM104.671 11.1019C105.417 11.6121 105.744 12.5789 105.654 14.0091C105.548 15.6798 104.937 17.1826 103.964 18.1625C103.204 18.9279 102.723 19.1439 101.613 19.2166C101.109 19.2496 100.718 19.237 100.687 19.1867C100.657 19.1388 101.01 17.2492 101.47 14.9876C101.931 12.7259 102.308 10.8604 102.308 10.8418C102.308 10.8232 102.766 10.8237 103.325 10.8428C104.211 10.873 104.384 10.9063 104.671 11.1019ZM88.415 13.822C88.4765 14.7223 88.5514 15.6589 88.5813 15.9033L88.6357 16.3476H87.3571C86.6539 16.3476 86.0785 16.3254 86.0785 16.2984C86.0785 16.2713 86.4839 15.4189 86.9793 14.4042C87.4748 13.3895 87.9433 12.414 88.0204 12.2364C88.2318 11.7502 88.289 11.9802 88.415 13.822Z" fill="#DDFFCD"/>
<path fill-rule="evenodd" clip-rule="evenodd" d="M48.778 6.67816C48.5733 7.05119 47.3837 9.27153 46.1344 11.6123C44.8852 13.9532 43.6952 16.1746 43.4901 16.549L43.1172 17.2295L43.4768 17.0903C43.6747 17.0137 44.9278 16.5735 46.2615 16.112C47.5954 15.6505 48.6977 15.2596 48.7112 15.2433C48.7248 15.227 49.1253 14.5401 49.6013 13.717C50.0773 12.8938 50.4996 12.186 50.5397 12.1441C50.5799 12.1022 52.2562 12.1188 54.2649 12.181L57.9171 12.294L61.966 9.21709C64.1929 7.52487 66.0168 6.10879 66.0192 6.07015C66.0216 6.03152 62.2271 6 57.5869 6H49.1502L48.778 6.67816ZM60.1133 13.8738C58.6427 14.3848 57.391 14.8531 57.3316 14.9146C57.2721 14.9762 56.8353 15.7 56.3607 16.5231C55.8861 17.3463 55.4914 18.0255 55.4836 18.0324C55.4759 18.0393 53.823 17.9924 51.8107 17.928C49.7984 17.8636 48.1098 17.8414 48.0582 17.8787C48.0066 17.9159 46.1724 19.31 43.9821 20.9764L40 24.0063L48.4331 24.0301C53.0714 24.0433 56.8997 24.0208 56.9405 23.9801C57.0484 23.8725 62.8506 13.0002 62.8161 12.9703C62.8 12.9563 61.5838 13.363 60.1133 13.8738Z" fill="#DDFFCD"/>
</g>
<defs>
<filter id="filter0_bii_71_1236" x="71" y="20" width="158.852" height="158.852" filterUnits="userSpaceOnUse" color-interpolation-filters="sRGB">
<feFlood flood-opacity="0" result="BackgroundImageFix"/>
<feGaussianBlur in="BackgroundImageFix" stdDeviation="6"/>
<feComposite in2="SourceAlpha" operator="in" result="effect1_backgroundBlur_71_1236"/>
<feBlend mode="normal" in="SourceGraphic" in2="effect1_backgroundBlur_71_1236" result="shape"/>
<feColorMatrix in="SourceAlpha" type="matrix" values="0 0 0 0 0 0 0 0 0 0 0 0 0 0 0 0 0 0 127 0" result="hardAlpha"/>
<feOffset dx="-1.24988" dy="1.24988"/>
<feGaussianBlur stdDeviation="0.624942"/>
<feComposite in2="hardAlpha" operator="arithmetic" k2="-1" k3="1"/>
<feColorMatrix type="matrix" values="0 0 0 0 1 0 0 0 0 1 0 0 0 0 1 0 0 0 0.1 0"/>
<feBlend mode="normal" in2="shape" result="effect2_innerShadow_71_1236"/>
<feColorMatrix in="SourceAlpha" type="matrix" values="0 0 0 0 0 0 0 0 0 0 0 0 0 0 0 0 0 0 127 0" result="hardAlpha"/>
<feOffset dx="1.24988" dy="-1.24988"/>
<feGaussianBlur stdDeviation="0.624942"/>
<feComposite in2="hardAlpha" operator="arithmetic" k2="-1" k3="1"/>
<feColorMatrix type="matrix" values="0 0 0 0 0.76 0 0 0 0 0.76 0 0 0 0 0.76 0 0 0 0.096 0"/>
<feBlend mode="normal" in2="effect2_innerShadow_71_1236" result="effect3_innerShadow_71_1236"/>
</filter>
<filter id="filter1_bii_71_1236" x="90.3734" y="33.6091" width="117.869" height="120.756" filterUnits="userSpaceOnUse" color-interpolation-filters="sRGB">
<feFlood flood-opacity="0" result="BackgroundImageFix"/>
<feGaussianBlur in="BackgroundImageFix" stdDeviation="6"/>
<feComposite in2="SourceAlpha" operator="in" result="effect1_backgroundBlur_71_1236"/>
<feBlend mode="normal" in="SourceGraphic" in2="effect1_backgroundBlur_71_1236" result="shape"/>
<feColorMatrix in="SourceAlpha" type="matrix" values="0 0 0 0 0 0 0 0 0 0 0 0 0 0 0 0 0 0 127 0" result="hardAlpha"/>
<feOffset dx="-1.24988" dy="1.24988"/>
<feGaussianBlur stdDeviation="0.624942"/>
<feComposite in2="hardAlpha" operator="arithmetic" k2="-1" k3="1"/>
<feColorMatrix type="matrix" values="0 0 0 0 1 0 0 0 0 1 0 0 0 0 1 0 0 0 0.1 0"/>
<feBlend mode="normal" in2="shape" result="effect2_innerShadow_71_1236"/>
<feColorMatrix in="SourceAlpha" type="matrix" values="0 0 0 0 0 0 0 0 0 0 0 0 0 0 0 0 0 0 127 0" result="hardAlpha"/>
<feOffset dx="1.24988" dy="-1.24988"/>
<feGaussianBlur stdDeviation="0.624942"/>
<feComposite in2="hardAlpha" operator="arithmetic" k2="-1" k3="1"/>
<feColorMatrix type="matrix" values="0 0 0 0 0.76 0 0 0 0 0.76 0 0 0 0 0.76 0 0 0 0.096 0"/>
<feBlend mode="normal" in2="effect2_innerShadow_71_1236" result="effect3_innerShadow_71_1236"/>
</filter>
<clipPath id="clip0_71_1236">
<rect width="178" height="132" fill="white"/>
</clipPath>
<clipPath id="clip1_71_1236">
<rect width="96" height="96" fill="white" transform="translate(83 107.283) rotate(-51.6465)"/>
</clipPath>
</defs>
</svg>
